# xmcd
#
# Track frame offsets: 
#        150
#        19592
#        35905
#        51052
#        74062
#        87347
#        93980
#        111040
#        132147
#        149710
#        167860
#        183010
#        197010
#        211097
#        227990
#        253765
#
# Disc length: 4073 seconds
#
# Revision: 2
# Processed by: cddbd v1.5.2PL0 Copyright (c) Steve Scherf et al.
# Submitted via: ExactAudioCopy v0.95b4
#
DISCID=e80fe710
DTITLE=Ian Anderson - The Secret Language Of Birds
DYEAR=2000
DGENRE=Progressive Rock
TTITLE0=The Secret Language Of Birds
TTITLE1=The Little Flower Girl
TTITLE2=Montserrat
TTITLE3=Postcard Day
TTITLE4=The Water Carrier
TTITLE5=Set-aside
TTITLE6=A Better Moon
TTITLE7=Sanctuary
TTITLE8=The Jasmine Corridor
TTITLE9=The Habanero Reel
TTITLE10=Panama Freighter
TTITLE11=The Secret Language Of Birds, pt II
TTITLE12=Boris Dancing
TTITLE13=Circular Breathing
TTITLE14=The Stormount Shuffle
TTITLE15=Data
EXTD=
EXTT0=
EXTT1=
EXTT2=
EXTT3=
EXTT4=
EXTT5=
EXTT6=
EXTT7=
EXTT8=
EXTT9=
EXTT10=
EXTT11=
EXTT12=
EXTT13=
EXTT14=
EXTT15=
PLAYORDER=
